<svg xmlns="http://www.w3.org/2000/svg" xmlns:xlink="http://www.w3.org/1999/xlink" version="1.1" data-diagram-type="SALT" style="width:426px;height:101px;background:#FFFFFF;" width="426.4px" height="101.4px" viewBox="0 0 426 101" zoomAndPan="magnify" preserveAspectRatio="none" contentStyleType="text/css"><?plantuml 1.2026.8?><defs/><g font-family="sans-serif" lengthAdjust="spacing"><text x="9.1" y="25.294" fill="#000" font-size="15.6" textLength="53.754">Usuario</text><path d="M73.689,14.422 C72.259,14.422 71.089,15.878 71.089,17.672 C71.089,19.466 72.259,20.922 73.689,20.922 C75.119,20.922 76.289,19.466 76.289,17.672 C76.289,15.878 75.119,14.422 73.689,14.422 M70.972,20.922 C69.594,20.987 68.489,22.118 68.489,23.522 L68.489,24.822 L78.889,24.822 L78.889,23.522 C78.889,22.118 77.797,20.987 76.406,20.922 C75.704,21.715 74.742,22.222 73.689,22.222 C72.636,22.222 71.674,21.715 70.972,20.922" fill="#000"/><text x="141.7" y="25.294" fill="#000" font-size="15.6" textLength="71.944">MiNombre</text><line x1="139.1" y1="28.722" x2="236.6" y2="28.722" style="stroke:#000;stroke-width:1.3;"/><line x1="139.1" y1="24.822" x2="139.1" y2="27.422" style="stroke:#000;stroke-width:1.3;"/><line x1="236.6" y1="24.822" x2="236.6" y2="27.422" style="stroke:#000;stroke-width:1.3;"/><text x="9.1" y="50.116" fill="#000" font-size="15.6" textLength="80.651">Contraseña</text><path d="M102.535,39.244 C100.741,39.244 99.285,40.7 99.285,42.494 C99.285,42.702 99.285,42.91 99.324,43.105 L95.385,47.044 L95.385,49.644 L99.285,49.644 L99.285,47.044 L101.885,47.044 L101.885,45.744 L101.924,45.705 C102.119,45.744 102.327,45.744 102.535,45.744 C104.329,45.744 105.785,44.288 105.785,42.494 C105.785,40.7 104.329,39.244 102.535,39.244 M103.185,40.544 C103.9,40.544 104.485,41.129 104.485,41.844 C104.485,42.559 103.9,43.144 103.185,43.144 C102.47,43.144 101.885,42.559 101.885,41.844 C101.885,41.129 102.47,40.544 103.185,40.544" fill="#000"/><text x="141.7" y="50.116" fill="#000" font-size="15.6" textLength="24.284">****</text><line x1="139.1" y1="53.544" x2="247" y2="53.544" style="stroke:#000;stroke-width:1.3;"/><line x1="139.1" y1="49.644" x2="139.1" y2="52.244" style="stroke:#000;stroke-width:1.3;"/><line x1="247" y1="49.644" x2="247" y2="52.244" style="stroke:#000;stroke-width:1.3;"/><rect x="12.35" y="61.994" width="119.6" height="24.822" fill="#EEE" style="stroke:#000;stroke-width:3.25;" rx="6.5" ry="6.5"/><text x="32.268" y="80.788" fill="#000" font-size="15.6" textLength="62.43">Cancelar</text><path d="M105.532,69.916 C102.659,69.916 100.332,72.243 100.332,75.116 C100.332,77.989 102.659,80.316 105.532,80.316 C108.405,80.316 110.732,77.989 110.732,75.116 C110.732,72.243 108.405,69.916 105.532,69.916 M103.582,72.23 L105.532,74.18 L107.482,72.23 L108.418,73.166 L106.468,75.116 L108.418,77.066 L107.482,78.002 L105.532,76.052 L103.582,78.002 L102.646,77.066 L104.596,75.116 L102.646,73.166 L103.582,72.23" fill="#000"/><rect x="141.05" y="61.994" width="57.2" height="24.822" fill="#EEE" style="stroke:#000;stroke-width:3.25;" rx="6.5" ry="6.5"/><text x="149.713" y="80.788" fill="#000" font-size="15.6" textLength="22.539">OK</text><path d="M181.787,69.916 L181.787,71.216 L186.987,71.216 L186.987,77.716 L181.787,77.716 L181.787,79.016 L188.287,79.016 L188.287,69.916 L181.787,69.916 M183.087,72.516 L183.087,73.816 L177.887,73.816 L177.887,75.116 L183.087,75.116 L183.087,76.416 L185.687,74.466 L183.087,72.516" fill="#000"/><rect x="263.034" y="10.4" width="0.65" height="0.65" fill="#000" style="stroke:#000;stroke-width:0.65;"/><rect x="263.034" y="11.7" width="0.65" height="0.65" fill="#000" style="stroke:#000;stroke-width:0.65;"/><rect x="263.034" y="13" width="0.65" height="0.65" fill="#000" style="stroke:#000;stroke-width:0.65;"/><rect x="263.034" y="14.3" width="0.65" height="0.65" fill="#000" style="stroke:#000;stroke-width:0.65;"/><rect x="263.034" y="15.6" width="0.65" height="0.65" fill="#000" style="stroke:#000;stroke-width:0.65;"/><rect x="263.034" y="16.9" width="0.65" height="0.65" fill="#000" style="stroke:#000;stroke-width:0.65;"/><rect x="263.034" y="18.2" width="0.65" height="0.65" fill="#000" style="stroke:#000;stroke-width:0.65;"/><rect x="263.034" y="19.5" width="0.65" height="0.65" fill="#000" style="stroke:#000;stroke-width:0.65;"/><rect x="264.334" y="10.4" width="0.65" height="0.65" fill="#000" style="stroke:#000;stroke-width:0.65;"/><rect x="264.334" y="13" width="0.65" height="0.65" fill="#000" style="stroke:#000;stroke-width:0.65;"/><rect x="264.334" y="19.5" width="0.65" height="0.65" fill="#000" style="stroke:#000;stroke-width:0.65;"/><rect x="265.634" y="10.4" width="0.65" height="0.65" fill="#000" style="stroke:#000;stroke-width:0.65;"/><rect x="265.634" y="13" width="0.65" height="0.65" fill="#000" style="stroke:#000;stroke-width:0.65;"/><rect x="265.634" y="19.5" width="0.65" height="0.65" fill="#000" style="stroke:#000;stroke-width:0.65;"/><rect x="266.934" y="10.4" width="0.65" height="0.65" fill="#000" style="stroke:#000;stroke-width:0.65;"/><rect x="266.934" y="13" width="0.65" height="0.65" fill="#000" style="stroke:#000;stroke-width:0.65;"/><rect x="266.934" y="19.5" width="0.65" height="0.65" fill="#000" style="stroke:#000;stroke-width:0.65;"/><rect x="268.234" y="10.4" width="0.65" height="0.65" fill="#000" style="stroke:#000;stroke-width:0.65;"/><rect x="268.234" y="11.7" width="0.65" height="0.65" fill="#000" style="stroke:#000;stroke-width:0.65;"/><rect x="268.234" y="13" width="0.65" height="0.65" fill="#000" style="stroke:#000;stroke-width:0.65;"/><rect x="268.234" y="19.5" width="0.65" height="0.65" fill="#000" style="stroke:#000;stroke-width:0.65;"/><rect x="269.534" y="13" width="0.65" height="0.65" fill="#000" style="stroke:#000;stroke-width:0.65;"/><rect x="269.534" y="19.5" width="0.65" height="0.65" fill="#000" style="stroke:#000;stroke-width:0.65;"/><rect x="270.834" y="13" width="0.65" height="0.65" fill="#000" style="stroke:#000;stroke-width:0.65;"/><rect x="270.834" y="19.5" width="0.65" height="0.65" fill="#000" style="stroke:#000;stroke-width:0.65;"/><rect x="272.134" y="13" width="0.65" height="0.65" fill="#000" style="stroke:#000;stroke-width:0.65;"/><rect x="272.134" y="19.5" width="0.65" height="0.65" fill="#000" style="stroke:#000;stroke-width:0.65;"/><rect x="273.434" y="13" width="0.65" height="0.65" fill="#000" style="stroke:#000;stroke-width:0.65;"/><rect x="273.434" y="19.5" width="0.65" height="0.65" fill="#000" style="stroke:#000;stroke-width:0.65;"/><rect x="274.734" y="13" width="0.65" height="0.65" fill="#000" style="stroke:#000;stroke-width:0.65;"/><rect x="274.734" y="14.3" width="0.65" height="0.65" fill="#000" style="stroke:#000;stroke-width:0.65;"/><rect x="274.734" y="15.6" width="0.65" height="0.65" fill="#000" style="stroke:#000;stroke-width:0.65;"/><rect x="274.734" y="16.9" width="0.65" height="0.65" fill="#000" style="stroke:#000;stroke-width:0.65;"/><rect x="274.734" y="18.2" width="0.65" height="0.65" fill="#000" style="stroke:#000;stroke-width:0.65;"/><rect x="274.734" y="19.5" width="0.65" height="0.65" fill="#000" style="stroke:#000;stroke-width:0.65;"/><text x="261.734" y="40.894" fill="#000" font-size="15.6" textLength="154.339">reutilización del sprite:</text><rect x="264.334" y="49.522" width="0.65" height="0.65" fill="#000" style="stroke:#000;stroke-width:0.65;"/><rect x="264.334" y="50.822" width="0.65" height="0.65" fill="#000" style="stroke:#000;stroke-width:0.65;"/><rect x="264.334" y="52.122" width="0.65" height="0.65" fill="#000" style="stroke:#000;stroke-width:0.65;"/><rect x="264.334" y="53.422" width="0.65" height="0.65" fill="#000" style="stroke:#000;stroke-width:0.65;"/><rect x="264.334" y="54.722" width="0.65" height="0.65" fill="#000" style="stroke:#000;stroke-width:0.65;"/><rect x="264.334" y="56.022" width="0.65" height="0.65" fill="#000" style="stroke:#000;stroke-width:0.65;"/><rect x="264.334" y="57.322" width="0.65" height="0.65" fill="#000" style="stroke:#000;stroke-width:0.65;"/><rect x="264.334" y="58.622" width="0.65" height="0.65" fill="#000" style="stroke:#000;stroke-width:0.65;"/><rect x="265.634" y="49.522" width="0.65" height="0.65" fill="#000" style="stroke:#000;stroke-width:0.65;"/><rect x="265.634" y="52.122" width="0.65" height="0.65" fill="#000" style="stroke:#000;stroke-width:0.65;"/><rect x="265.634" y="58.622" width="0.65" height="0.65" fill="#000" style="stroke:#000;stroke-width:0.65;"/><rect x="266.934" y="49.522" width="0.65" height="0.65" fill="#000" style="stroke:#000;stroke-width:0.65;"/><rect x="266.934" y="52.122" width="0.65" height="0.65" fill="#000" style="stroke:#000;stroke-width:0.65;"/><rect x="266.934" y="58.622" width="0.65" height="0.65" fill="#000" style="stroke:#000;stroke-width:0.65;"/><rect x="268.234" y="49.522" width="0.65" height="0.65" fill="#000" style="stroke:#000;stroke-width:0.65;"/><rect x="268.234" y="52.122" width="0.65" height="0.65" fill="#000" style="stroke:#000;stroke-width:0.65;"/><rect x="268.234" y="58.622" width="0.65" height="0.65" fill="#000" style="stroke:#000;stroke-width:0.65;"/><rect x="269.534" y="49.522" width="0.65" height="0.65" fill="#000" style="stroke:#000;stroke-width:0.65;"/><rect x="269.534" y="50.822" width="0.65" height="0.65" fill="#000" style="stroke:#000;stroke-width:0.65;"/><rect x="269.534" y="52.122" width="0.65" height="0.65" fill="#000" style="stroke:#000;stroke-width:0.65;"/><rect x="269.534" y="58.622" width="0.65" height="0.65" fill="#000" style="stroke:#000;stroke-width:0.65;"/><rect x="270.834" y="52.122" width="0.65" height="0.65" fill="#000" style="stroke:#000;stroke-width:0.65;"/><rect x="270.834" y="58.622" width="0.65" height="0.65" fill="#000" style="stroke:#000;stroke-width:0.65;"/><rect x="272.134" y="52.122" width="0.65" height="0.65" fill="#000" style="stroke:#000;stroke-width:0.65;"/><rect x="272.134" y="58.622" width="0.65" height="0.65" fill="#000" style="stroke:#000;stroke-width:0.65;"/><rect x="273.434" y="52.122" width="0.65" height="0.65" fill="#000" style="stroke:#000;stroke-width:0.65;"/><rect x="273.434" y="58.622" width="0.65" height="0.65" fill="#000" style="stroke:#000;stroke-width:0.65;"/><rect x="274.734" y="52.122" width="0.65" height="0.65" fill="#000" style="stroke:#000;stroke-width:0.65;"/><rect x="274.734" y="58.622" width="0.65" height="0.65" fill="#000" style="stroke:#000;stroke-width:0.65;"/><rect x="276.034" y="52.122" width="0.65" height="0.65" fill="#000" style="stroke:#000;stroke-width:0.65;"/><rect x="276.034" y="53.422" width="0.65" height="0.65" fill="#000" style="stroke:#000;stroke-width:0.65;"/><rect x="276.034" y="54.722" width="0.65" height="0.65" fill="#000" style="stroke:#000;stroke-width:0.65;"/><rect x="276.034" y="56.022" width="0.65" height="0.65" fill="#000" style="stroke:#000;stroke-width:0.65;"/><rect x="276.034" y="57.322" width="0.65" height="0.65" fill="#000" style="stroke:#000;stroke-width:0.65;"/><rect x="276.034" y="58.622" width="0.65" height="0.65" fill="#000" style="stroke:#000;stroke-width:0.65;"/><text x="281.234" y="64.416" fill="#000" font-size="15.6" textLength="65.043">carpeta 1</text><rect x="264.334" y="71.744" width="0.65" height="0.65" fill="#000" style="stroke:#000;stroke-width:0.65;"/><rect x="264.334" y="73.044" width="0.65" height="0.65" fill="#000" style="stroke:#000;stroke-width:0.65;"/><rect x="264.334" y="74.344" width="0.65" height="0.65" fill="#000" style="stroke:#000;stroke-width:0.65;"/><rect x="264.334" y="75.644" width="0.65" height="0.65" fill="#000" style="stroke:#000;stroke-width:0.65;"/><rect x="264.334" y="76.944" width="0.65" height="0.65" fill="#000" style="stroke:#000;stroke-width:0.65;"/><rect x="264.334" y="78.244" width="0.65" height="0.65" fill="#000" style="stroke:#000;stroke-width:0.65;"/><rect x="264.334" y="79.544" width="0.65" height="0.65" fill="#000" style="stroke:#000;stroke-width:0.65;"/><rect x="264.334" y="80.844" width="0.65" height="0.65" fill="#000" style="stroke:#000;stroke-width:0.65;"/><rect x="265.634" y="71.744" width="0.65" height="0.65" fill="#000" style="stroke:#000;stroke-width:0.65;"/><rect x="265.634" y="74.344" width="0.65" height="0.65" fill="#000" style="stroke:#000;stroke-width:0.65;"/><rect x="265.634" y="80.844" width="0.65" height="0.65" fill="#000" style="stroke:#000;stroke-width:0.65;"/><rect x="266.934" y="71.744" width="0.65" height="0.65" fill="#000" style="stroke:#000;stroke-width:0.65;"/><rect x="266.934" y="74.344" width="0.65" height="0.65" fill="#000" style="stroke:#000;stroke-width:0.65;"/><rect x="266.934" y="80.844" width="0.65" height="0.65" fill="#000" style="stroke:#000;stroke-width:0.65;"/><rect x="268.234" y="71.744" width="0.65" height="0.65" fill="#000" style="stroke:#000;stroke-width:0.65;"/><rect x="268.234" y="74.344" width="0.65" height="0.65" fill="#000" style="stroke:#000;stroke-width:0.65;"/><rect x="268.234" y="80.844" width="0.65" height="0.65" fill="#000" style="stroke:#000;stroke-width:0.65;"/><rect x="269.534" y="71.744" width="0.65" height="0.65" fill="#000" style="stroke:#000;stroke-width:0.65;"/><rect x="269.534" y="73.044" width="0.65" height="0.65" fill="#000" style="stroke:#000;stroke-width:0.65;"/><rect x="269.534" y="74.344" width="0.65" height="0.65" fill="#000" style="stroke:#000;stroke-width:0.65;"/><rect x="269.534" y="80.844" width="0.65" height="0.65" fill="#000" style="stroke:#000;stroke-width:0.65;"/><rect x="270.834" y="74.344" width="0.65" height="0.65" fill="#000" style="stroke:#000;stroke-width:0.65;"/><rect x="270.834" y="80.844" width="0.65" height="0.65" fill="#000" style="stroke:#000;stroke-width:0.65;"/><rect x="272.134" y="74.344" width="0.65" height="0.65" fill="#000" style="stroke:#000;stroke-width:0.65;"/><rect x="272.134" y="80.844" width="0.65" height="0.65" fill="#000" style="stroke:#000;stroke-width:0.65;"/><rect x="273.434" y="74.344" width="0.65" height="0.65" fill="#000" style="stroke:#000;stroke-width:0.65;"/><rect x="273.434" y="80.844" width="0.65" height="0.65" fill="#000" style="stroke:#000;stroke-width:0.65;"/><rect x="274.734" y="74.344" width="0.65" height="0.65" fill="#000" style="stroke:#000;stroke-width:0.65;"/><rect x="274.734" y="80.844" width="0.65" height="0.65" fill="#000" style="stroke:#000;stroke-width:0.65;"/><rect x="276.034" y="74.344" width="0.65" height="0.65" fill="#000" style="stroke:#000;stroke-width:0.65;"/><rect x="276.034" y="75.644" width="0.65" height="0.65" fill="#000" style="stroke:#000;stroke-width:0.65;"/><rect x="276.034" y="76.944" width="0.65" height="0.65" fill="#000" style="stroke:#000;stroke-width:0.65;"/><rect x="276.034" y="78.244" width="0.65" height="0.65" fill="#000" style="stroke:#000;stroke-width:0.65;"/><rect x="276.034" y="79.544" width="0.65" height="0.65" fill="#000" style="stroke:#000;stroke-width:0.65;"/><rect x="276.034" y="80.844" width="0.65" height="0.65" fill="#000" style="stroke:#000;stroke-width:0.65;"/><text x="281.234" y="86.638" fill="#000" font-size="15.6" textLength="65.043">carpeta 2</text><?plantuml-src hP71IWCn48RlUOgX1mz2Wxk2Y2oXqAEe9w5GUXZJeGHZiaooeDPzAF4H-cBEPgkKAfxyOSZmppV399cbZ9mJ-goIHKzGwNErLG130Dod3jb5Q4vQuXI3WJUOtBZR-FJ019F2p6F8Z8bsxoZS8xqKw5G4HIErd6Emv965iOwjf-cpMGcvlBiM2wsDNSXJ7pSkc9Mqz5BJ4kCYJMEHMygeng7wG5_MOj2H9VdY5sf43wcY_x1-ZZzUrPXoC7NPUVUArkq-0gp9GshPPRegvUs-_VlcPdZNVGxLdzMwLFlX5LMlPXJMvOTLfUkp-a9VVW80?></g></svg>