<svg xmlns="http://www.w3.org/2000/svg" viewBox="0 0 1000 552" role="img" aria-labelledby="t d" lang="pt-BR" font-family="'Trebuchet MS', 'Segoe UI', 'Helvetica Neue', Arial, sans-serif">
<title id="t">Consulta hierárquica: da raiz às folhas</title>
<desc id="d">À esquerda, duas árvores de mensagens. A primeira começa na mensagem 1, do Usuário 1, com nível 1, e desce pelas respostas 2, 3, 4 e 5, com níveis de 2 a 5. A segunda começa na mensagem 6, do Usuário 23, com a resposta 7 no nível 2. À direita, a tabela com id, login e parent_id, em que as raízes 1 e 6 têm parent_id nulo, e a cláusula CONNECT BY PRIOR id = parent_id, com a explicação de que PRIOR marca a coluna da linha-pai.</desc>
<defs><marker id="ar" viewBox="0 0 10 10" refX="9" refY="5" markerWidth="7" markerHeight="7" orient="auto-start-reverse"><path d="M0 0 L10 5 L0 10 z" fill="#2B1B3D"/></marker><marker id="am" viewBox="0 0 10 10" refX="9" refY="5" markerWidth="7" markerHeight="7" orient="auto-start-reverse"><path d="M0 0 L10 5 L0 10 z" fill="#756986"/></marker><marker id="ap" viewBox="0 0 10 10" refX="9" refY="5" markerWidth="7" markerHeight="7" orient="auto-start-reverse"><path d="M0 0 L10 5 L0 10 z" fill="#5B2A86"/></marker><marker id="ard" viewBox="0 0 10 10" refX="9" refY="5" markerWidth="7" markerHeight="7" orient="auto-start-reverse"><path d="M0 0 L10 5 L0 10 z" fill="#D62828"/></marker></defs>
<rect width="1000" height="552" rx="18" fill="#FFF7EC"/>
<text x="500.0" y="44.0" font-size="24" fill="#2B1B3D" text-anchor="middle" font-weight="700" xml:space="preserve">Consulta hierárquica: da raiz às folhas</text>
<text x="500.0" y="72.0" font-size="16" fill="#756986" text-anchor="middle" font-style="italic" xml:space="preserve">Cada mensagem aponta para a mensagem que ela responde</text>
<path d="M160 172 V246 H166" fill="none" stroke="#8A8198" stroke-width="2" marker-end="url(#am)"/>
<path d="M190 252 V326 H196" fill="none" stroke="#8A8198" stroke-width="2" marker-end="url(#am)"/>
<path d="M220 332 V406 H226" fill="none" stroke="#8A8198" stroke-width="2" marker-end="url(#am)"/>
<path d="M250 412 V486 H256" fill="none" stroke="#8A8198" stroke-width="2" marker-end="url(#am)"/>
<path d="M440 172 V246 H446" fill="none" stroke="#8A8198" stroke-width="2" marker-end="url(#am)"/>
<rect x="140.0" y="144.0" width="150.0" height="34.0" rx="8" fill="#FFFFFF" stroke="#C2185B" stroke-width="3"/>
<text x="150.0" y="166.0" font-size="13" fill="#2B1B3D" font-weight="700" xml:space="preserve">#1 Usuário 1</text>
<rect x="298.0" y="151.0" width="34.0" height="20.0" rx="10" fill="#C2185B" stroke="#C2185B" stroke-width="0"/><text x="315.0" y="165.0" font-size="12" fill="#FFFFFF" text-anchor="middle" font-weight="700" xml:space="preserve">1</text>
<rect x="170.0" y="224.0" width="150.0" height="34.0" rx="8" fill="#FFFFFF" stroke="#5B2A86" stroke-width="2.2"/>
<text x="180.0" y="246.0" font-size="13" fill="#2B1B3D" xml:space="preserve">#2 Usuário 2</text>
<rect x="328.0" y="231.0" width="34.0" height="20.0" rx="10" fill="#5B2A86" stroke="#5B2A86" stroke-width="0"/><text x="345.0" y="245.0" font-size="12" fill="#FFFFFF" text-anchor="middle" font-weight="700" xml:space="preserve">2</text>
<rect x="200.0" y="304.0" width="150.0" height="34.0" rx="8" fill="#FFFFFF" stroke="#3A86FF" stroke-width="2.2"/>
<text x="210.0" y="326.0" font-size="13" fill="#2B1B3D" xml:space="preserve">#3 Usuário 3</text>
<rect x="358.0" y="311.0" width="34.0" height="20.0" rx="10" fill="#3A86FF" stroke="#3A86FF" stroke-width="0"/><text x="375.0" y="325.0" font-size="12" fill="#FFFFFF" text-anchor="middle" font-weight="700" xml:space="preserve">3</text>
<rect x="230.0" y="384.0" width="150.0" height="34.0" rx="8" fill="#FFFFFF" stroke="#2A9D8F" stroke-width="2.2"/>
<text x="240.0" y="406.0" font-size="13" fill="#2B1B3D" xml:space="preserve">#4 Usuário 2</text>
<rect x="388.0" y="391.0" width="34.0" height="20.0" rx="10" fill="#2A9D8F" stroke="#2A9D8F" stroke-width="0"/><text x="405.0" y="405.0" font-size="12" fill="#FFFFFF" text-anchor="middle" font-weight="700" xml:space="preserve">4</text>
<rect x="260.0" y="464.0" width="150.0" height="34.0" rx="8" fill="#FFFFFF" stroke="#B35300" stroke-width="2.2"/>
<text x="270.0" y="486.0" font-size="13" fill="#2B1B3D" xml:space="preserve">#5 Usuário 4</text>
<rect x="418.0" y="471.0" width="34.0" height="20.0" rx="10" fill="#B35300" stroke="#B35300" stroke-width="0"/><text x="435.0" y="485.0" font-size="12" fill="#FFFFFF" text-anchor="middle" font-weight="700" xml:space="preserve">5</text>
<rect x="420.0" y="144.0" width="150.0" height="34.0" rx="8" fill="#FFFFFF" stroke="#C2185B" stroke-width="3"/>
<text x="430.0" y="166.0" font-size="13" fill="#2B1B3D" font-weight="700" xml:space="preserve">#6 Usuário 23</text>
<rect x="578.0" y="151.0" width="34.0" height="20.0" rx="10" fill="#C2185B" stroke="#C2185B" stroke-width="0"/><text x="595.0" y="165.0" font-size="12" fill="#FFFFFF" text-anchor="middle" font-weight="700" xml:space="preserve">1</text>
<rect x="450.0" y="224.0" width="150.0" height="34.0" rx="8" fill="#FFFFFF" stroke="#5B2A86" stroke-width="2.2"/>
<text x="460.0" y="246.0" font-size="13" fill="#2B1B3D" xml:space="preserve">#7 Usuário 6</text>
<rect x="608.0" y="231.0" width="34.0" height="20.0" rx="10" fill="#5B2A86" stroke="#5B2A86" stroke-width="0"/><text x="625.0" y="245.0" font-size="12" fill="#FFFFFF" text-anchor="middle" font-weight="700" xml:space="preserve">2</text>
<text x="140.0" y="118.0" font-size="12" fill="#C2185B" font-family="Consolas, 'Courier New', monospace" font-weight="700" xml:space="preserve">START WITH parent_id IS NULL →</text>
<text x="640.0" y="120.0" font-size="14" fill="#2B1B3D" font-weight="700" xml:space="preserve">Tabela mensagem</text>
<rect x="640.0" y="132.0" width="330.0" height="26.0" rx="0" fill="#5B2A86" stroke="#5B2A86" stroke-width="0"/><text x="647.0" y="149.5" font-size="12.5" fill="#FFFFFF" font-family="Consolas, 'Courier New', monospace" font-weight="700" xml:space="preserve">id</text><text x="717.0" y="149.5" font-size="12.5" fill="#FFFFFF" font-family="Consolas, 'Courier New', monospace" font-weight="700" xml:space="preserve">login</text><text x="867.0" y="149.5" font-size="12.5" fill="#FFFFFF" font-family="Consolas, 'Courier New', monospace" font-weight="700" xml:space="preserve">parent_id</text><rect x="640.0" y="158.0" width="70.0" height="26.0" rx="0" fill="#FFE3E3" stroke="#E9E4EF" stroke-width="1"/><text x="647.0" y="175.5" font-size="12.5" fill="#2B1B3D" font-family="Consolas, 'Courier New', monospace" xml:space="preserve">1</text><rect x="710.0" y="158.0" width="150.0" height="26.0" rx="0" fill="#FFE3E3" stroke="#E9E4EF" stroke-width="1"/><text x="717.0" y="175.5" font-size="12.5" fill="#2B1B3D" font-family="Consolas, 'Courier New', monospace" xml:space="preserve">Usuário 1</text><rect x="860.0" y="158.0" width="110.0" height="26.0" rx="0" fill="#FFE3E3" stroke="#E9E4EF" stroke-width="1"/><text x="867.0" y="175.5" font-size="12.5" fill="#756986" font-family="Consolas, 'Courier New', monospace" xml:space="preserve">NULL</text><rect x="640.0" y="184.0" width="70.0" height="26.0" rx="0" fill="#FFFFFF" stroke="#E9E4EF" stroke-width="1"/><text x="647.0" y="201.5" font-size="12.5" fill="#2B1B3D" font-family="Consolas, 'Courier New', monospace" xml:space="preserve">2</text><rect x="710.0" y="184.0" width="150.0" height="26.0" rx="0" fill="#FFFFFF" stroke="#E9E4EF" stroke-width="1"/><text x="717.0" y="201.5" font-size="12.5" fill="#2B1B3D" font-family="Consolas, 'Courier New', monospace" xml:space="preserve">Usuário 2</text><rect x="860.0" y="184.0" width="110.0" height="26.0" rx="0" fill="#FFFFFF" stroke="#E9E4EF" stroke-width="1"/><text x="867.0" y="201.5" font-size="12.5" fill="#2B1B3D" font-family="Consolas, 'Courier New', monospace" xml:space="preserve">1</text><rect x="640.0" y="210.0" width="70.0" height="26.0" rx="0" fill="#FFFFFF" stroke="#E9E4EF" stroke-width="1"/><text x="647.0" y="227.5" font-size="12.5" fill="#2B1B3D" font-family="Consolas, 'Courier New', monospace" xml:space="preserve">3</text><rect x="710.0" y="210.0" width="150.0" height="26.0" rx="0" fill="#FFFFFF" stroke="#E9E4EF" stroke-width="1"/><text x="717.0" y="227.5" font-size="12.5" fill="#2B1B3D" font-family="Consolas, 'Courier New', monospace" xml:space="preserve">Usuário 3</text><rect x="860.0" y="210.0" width="110.0" height="26.0" rx="0" fill="#FFFFFF" stroke="#E9E4EF" stroke-width="1"/><text x="867.0" y="227.5" font-size="12.5" fill="#2B1B3D" font-family="Consolas, 'Courier New', monospace" xml:space="preserve">2</text><rect x="640.0" y="236.0" width="70.0" height="26.0" rx="0" fill="#FFFFFF" stroke="#E9E4EF" stroke-width="1"/><text x="647.0" y="253.5" font-size="12.5" fill="#2B1B3D" font-family="Consolas, 'Courier New', monospace" xml:space="preserve">4</text><rect x="710.0" y="236.0" width="150.0" height="26.0" rx="0" fill="#FFFFFF" stroke="#E9E4EF" stroke-width="1"/><text x="717.0" y="253.5" font-size="12.5" fill="#2B1B3D" font-family="Consolas, 'Courier New', monospace" xml:space="preserve">Usuário 2</text><rect x="860.0" y="236.0" width="110.0" height="26.0" rx="0" fill="#FFFFFF" stroke="#E9E4EF" stroke-width="1"/><text x="867.0" y="253.5" font-size="12.5" fill="#2B1B3D" font-family="Consolas, 'Courier New', monospace" xml:space="preserve">3</text><rect x="640.0" y="262.0" width="70.0" height="26.0" rx="0" fill="#FFFFFF" stroke="#E9E4EF" stroke-width="1"/><text x="647.0" y="279.5" font-size="12.5" fill="#2B1B3D" font-family="Consolas, 'Courier New', monospace" xml:space="preserve">5</text><rect x="710.0" y="262.0" width="150.0" height="26.0" rx="0" fill="#FFFFFF" stroke="#E9E4EF" stroke-width="1"/><text x="717.0" y="279.5" font-size="12.5" fill="#2B1B3D" font-family="Consolas, 'Courier New', monospace" xml:space="preserve">Usuário 4</text><rect x="860.0" y="262.0" width="110.0" height="26.0" rx="0" fill="#FFFFFF" stroke="#E9E4EF" stroke-width="1"/><text x="867.0" y="279.5" font-size="12.5" fill="#2B1B3D" font-family="Consolas, 'Courier New', monospace" xml:space="preserve">4</text><rect x="640.0" y="288.0" width="70.0" height="26.0" rx="0" fill="#FFE3E3" stroke="#E9E4EF" stroke-width="1"/><text x="647.0" y="305.5" font-size="12.5" fill="#2B1B3D" font-family="Consolas, 'Courier New', monospace" xml:space="preserve">6</text><rect x="710.0" y="288.0" width="150.0" height="26.0" rx="0" fill="#FFE3E3" stroke="#E9E4EF" stroke-width="1"/><text x="717.0" y="305.5" font-size="12.5" fill="#2B1B3D" font-family="Consolas, 'Courier New', monospace" xml:space="preserve">Usuário 23</text><rect x="860.0" y="288.0" width="110.0" height="26.0" rx="0" fill="#FFE3E3" stroke="#E9E4EF" stroke-width="1"/><text x="867.0" y="305.5" font-size="12.5" fill="#756986" font-family="Consolas, 'Courier New', monospace" xml:space="preserve">NULL</text><rect x="640.0" y="314.0" width="70.0" height="26.0" rx="0" fill="#FFFFFF" stroke="#E9E4EF" stroke-width="1"/><text x="647.0" y="331.5" font-size="12.5" fill="#2B1B3D" font-family="Consolas, 'Courier New', monospace" xml:space="preserve">7</text><rect x="710.0" y="314.0" width="150.0" height="26.0" rx="0" fill="#FFFFFF" stroke="#E9E4EF" stroke-width="1"/><text x="717.0" y="331.5" font-size="12.5" fill="#2B1B3D" font-family="Consolas, 'Courier New', monospace" xml:space="preserve">Usuário 6</text><rect x="860.0" y="314.0" width="110.0" height="26.0" rx="0" fill="#FFFFFF" stroke="#E9E4EF" stroke-width="1"/><text x="867.0" y="331.5" font-size="12.5" fill="#2B1B3D" font-family="Consolas, 'Courier New', monospace" xml:space="preserve">6</text><rect x="640.0" y="132.0" width="330.0" height="208.0" rx="0" fill="none" stroke="#2B1B3D" stroke-width="1.5"/>
<rect x="640.0" y="360.0" width="330.0" height="130.0" rx="10" fill="#2B1B3D" stroke="#2B1B3D" stroke-width="1"/>
<text x="654" y="388" font-family="Consolas, 'Courier New', monospace" font-size="13.5" xml:space="preserve"><tspan fill="#FFB703" font-weight="700">CONNECT BY </tspan><tspan fill="#5FD3C4">PRIOR</tspan><tspan fill="#F7F0FF"> id = parent_id</tspan></text>
<text x="654.0" y="416.0" font-size="12.5" fill="#F7F0FF" xml:space="preserve">PRIOR marca a coluna da linha-pai:</text>
<text x="654.0" y="436.0" font-size="12.5" fill="#F7F0FF" xml:space="preserve">o id do pai = o parent_id do filho.</text>
<text x="654.0" y="456.0" font-size="12.5" fill="#F7F0FF" xml:space="preserve">Trocar o lado do PRIOR inverte</text>
<text x="654.0" y="476.0" font-size="12.5" fill="#F7F0FF" xml:space="preserve">o sentido: sobe da folha à raiz.</text>
<text x="500.0" y="530.0" font-size="14" fill="#756986" text-anchor="middle" font-style="italic" xml:space="preserve">LEVEL é a profundidade: 1 nas raízes (parent_id nulo), 2 nas respostas diretas, e assim por diante.</text>
</svg>
